<svg id="Layer_1" data-name="Layer 1" xmlns="http://www.w3.org/2000/svg" viewBox="0 0 612 612"><title>saint-johns2</title><path d="M133.65,166.22c-10.44,4.12-20.56,8-30.57,12.12-2.56,1.05-3.79.66-5-1.8-2.27-4.47-4.75-8.87-7.42-13.11-5.53-8.77-9.27-18.3-12.53-28.06a8.83,8.83,0,0,1-.58-3.32c0.71-9.45,1.51-18.9,2.3-28.34a18.67,18.67,0,0,1,.39-1.93l7-.62-0.36-6-4.3-.53C97,81.66,111.85,69.34,121,51.31l16.53,15.25a0.92,0.92,0,0,1,.37.54c-1.22,4.92,3.19,6.59,5.56,9.27q15.2,17.2,30.78,34.05a13,13,0,0,0,5.64,3.47,22.53,22.53,0,0,1,12.53,8.42,9.82,9.82,0,0,0,3.39,2.81c6.95,3.55,12.57,9.45,20.66,11.07,3.22,0.64,4,3.26,2.07,5.92-3.94,5.42-8.14,10.67-12.42,15.83-7,8.44-14.11,16.78-21.25,25.1-1.15,1.33-2.8,2.22-4,3.51a5.49,5.49,0,0,0-1.32,2.8c-0.52,3.44-1.4,4.15-4.63,3.23-8.23-2.36-16.44-4.81-24.69-7.09-3.92-1.08-6.9-3-8.88-6.74C139.14,174.52,136.37,170.58,133.65,166.22Z"/></svg>